<mxfile host="app.diagrams.net" modified="2024-02-15T13:00:23.643Z" agent="Mozilla/5.0 (Macintosh; Intel Mac OS X 10_15_7) AppleWebKit/605.1.15 (KHTML, like Gecko) Version/17.3.1 Safari/605.1.15" version="23.1.4" etag="UKOOTMHSIIyZg-NsNf2j" type="github">
  <diagram name="Seite-1" id="nU5AgGWHDtLsmFp_yAly">
    <mxGraphModel>
      <root>
        <mxCell id="0" />
        <mxCell id="1" parent="0" />
      </root>
    </mxGraphModel>
  </diagram>
</mxfile>
